<svg xmlns="http://www.w3.org/2000/svg" width="91" height="80" viewBox="0 0 91 80">
    <g fill="none" fill-rule="evenodd">
        <path fill="#F1F1F0" d="M71.011 33.854c0-17.432-14.066-31.564-31.418-31.564-17.352 0-31.418 14.132-31.418 31.564l-6.042 12.14 6.042 3.643v18.21H20.26v9.712h38.668V58.735c7.356-5.777 12.084-14.774 12.084-24.88"/>
        <path fill="#FEAD5A" d="M39.593 20.5c7.341 0 13.292 5.979 13.292 13.354 0 7.376-5.95 13.354-13.292 13.354-7.341 0-13.292-5.978-13.292-13.354 0-7.375 5.95-13.354 13.292-13.354"/>
        <path fill="#FAD55A" d="M39.593 24.042c5.339 0 9.667 4.344 9.667 9.703 0 5.359-4.328 9.703-9.667 9.703-5.339 0-9.667-4.344-9.667-9.703 0-5.359 4.328-9.703 9.667-9.703"/>
        <path fill="#444" stroke="#444" d="M62.61 10.73c-6.148-6.177-14.322-9.579-23.017-9.579-8.694 0-16.869 3.402-23.017 9.579-6.084 6.113-9.464 14.22-9.533 22.854L1.12 45.486a1.14 1.14 0 0 0 .43 1.484l5.492 3.311v17.566c0 .628.507 1.138 1.133 1.138h10.951v8.574c0 .629.507 1.138 1.133 1.138s1.133-.51 1.133-1.138v-9.712c0-.629-.507-1.138-1.133-1.138H9.308V49.636c0-.4-.209-.77-.55-.976l-5.143-3.1 5.573-11.197c.079-.158.12-.332.12-.509 0-16.777 13.586-30.426 30.285-30.426 16.7 0 30.285 13.649 30.285 30.426 0 9.428-4.246 18.17-11.649 23.984a1.14 1.14 0 0 0-.435.897v18.824c0 .628.507 1.138 1.133 1.138s1.133-.51 1.133-1.138V59.284c7.687-6.247 12.084-15.483 12.084-25.43 0-8.735-3.386-16.947-9.534-23.124"/>
        <path fill="#444" d="M49.142 24.495a1.142 1.142 0 0 0-.155 1.602 12.27 12.27 0 0 1 2.766 7.757c0 6.736-5.455 12.216-12.16 12.216s-12.16-5.48-12.16-12.216c0-6.736 5.455-12.216 12.16-12.216 1.834 0 3.595.4 5.236 1.187.564.27 1.24.031 1.51-.536a1.14 1.14 0 0 0-.533-1.518 14.24 14.24 0 0 0-6.213-1.41c-7.954 0-14.425 6.502-14.425 14.493 0 7.991 6.471 14.492 14.425 14.492 7.954 0 14.425-6.5 14.425-14.492 0-3.352-1.165-6.62-3.282-9.204a1.13 1.13 0 0 0-1.594-.155M40.726 15.644v-3.642c0-.629-.507-1.138-1.133-1.138s-1.133.51-1.133 1.138v3.642c0 .628.507 1.138 1.133 1.138s1.133-.51 1.133-1.138M30.531 19.222c.86 0 1.407-.964.98-1.707L29.7 14.36a1.13 1.13 0 0 0-1.548-.416 1.141 1.141 0 0 0-.414 1.555l1.812 3.154c.21.365.59.569.982.569M24.462 23.763l-3.14-1.82a1.13 1.13 0 0 0-1.547.416 1.141 1.141 0 0 0 .415 1.555l3.14 1.82a1.141 1.141 0 0 0 1.604-.53 1.152 1.152 0 0 0-.472-1.44M22.6 33.854c0-.628-.507-1.138-1.133-1.138h-3.625c-.626 0-1.133.51-1.133 1.138 0 .629.507 1.138 1.133 1.138h3.625c.626 0 1.133-.51 1.133-1.138M23.33 41.974l-3.14 1.82c-.493.286-.7.918-.472 1.442a1.141 1.141 0 0 0 1.605.53l3.14-1.82c.541-.315.727-1.011.414-1.556a1.13 1.13 0 0 0-1.548-.416M31.097 48.64a1.13 1.13 0 0 0-1.548.416l-1.812 3.154a1.152 1.152 0 0 0 .309 1.485 1.14 1.14 0 0 0 1.653-.347l1.812-3.154a1.141 1.141 0 0 0-.414-1.555M39.593 50.926c-.626 0-1.133.51-1.133 1.139v3.642c0 .628.507 1.138 1.133 1.138s1.133-.51 1.133-1.138v-3.642c0-.63-.507-1.139-1.133-1.139M49.637 49.056a1.13 1.13 0 0 0-1.547-.417 1.141 1.141 0 0 0-.415 1.555l1.813 3.154a1.14 1.14 0 0 0 1.653.347c.459-.339.593-.99.309-1.485l-1.813-3.154z"/>
        <path fill="#000" d="M58.43 45.919c.527 0 .996-.38 1.108-.898a1.15 1.15 0 0 0-.542-1.226l-3.14-1.821a1.13 1.13 0 0 0-1.547.416 1.141 1.141 0 0 0 .415 1.555l3.14 1.82c.178.105.373.154.565.154M56.586 33.854c0 .629.507 1.138 1.133 1.138h3.625c.626 0 1.133-.51 1.133-1.138 0-.628-.507-1.138-1.133-1.138H57.72c-.626 0-1.133.51-1.133 1.138"/>
        <path fill="#444" d="M48.655 19.222c.392 0 .772-.204.982-.57L51.45 15.5a1.141 1.141 0 0 0-.415-1.555 1.13 1.13 0 0 0-1.547.416l-1.813 3.155c-.427.743.12 1.707.98 1.707"/>
        <g>
            <path fill="#E7ECED" d="M56.893 36.983v.022c-1.251 0-2.31 1.318-2.31 2.953 0 .747.225 1.428.599 1.933.417.581 1.037.944 1.71.944-1.25 0-2.31 1.406-2.31 3.041 0 1.636 1.06 2.876 2.31 2.876-1.25 0-2.31 1.417-2.31 3.041 0 1.636 1.017 2.965 2.268 2.965h25.985l6.907-3.546V31l-14.404-6.51H59.192S58.037 31 62.079 31l6.918.055-11.89.01-5.486.012-7.988.01c-1.25 0-2.31 1.318-2.31 2.954 0 1.636 1.06 2.964 2.31 2.964l7.902-.01 5.358-.012z"/>
            <path fill="#FEAD5A" d="M51.687 36.994l-8.054.011c-1.25 0-2.31-1.328-2.31-2.964s1.06-2.954 2.31-2.954l8.14-.01"/>
            <path fill="#FAD55A" d="M48.658 36.994l-5.025.011c-1.25 0-2.31-1.328-2.31-2.964s1.06-2.954 2.31-2.954l5.11-.01"/>
            <path fill="#F9E6D9" d="M57.107 31.065l11.89-.01L62.08 31c-4.042 0-2.887-6.51-2.887-6.51h16.147L89.742 31v20.212l-6.632 3.405c-3.592 0-18.464 1.024-26.807 0-3.14-.386-.716-3.957-.716-5.649 0-1.066 0-1.617-.553-3.069-.481-1.262.553-2.682 0-4.468-.235-.758-.62-1.785 0-3.176.62-1.391 5.326-1.164 4.158-1.592-1.992-.731-14.409.697-15.986 0-2.352-1.04-1.64-3.211-.646-4.486 1.476-1.895 8.383-1.106 11.854-1.106l2.693-.006z"/>
            <path fill="#444" d="M69.057 55.947h-1.883 1.883zm-4.277 0h-7.87c-1.91 0-3.465-1.864-3.465-4.156 0-1.153.406-2.216 1.05-2.989-.618-.698-1.008-1.665-1.046-2.756l.4-4.19a4.75 4.75 0 0 1-.065-3.677l-1.35.002-2.647.004-6.094.01c-1.934 0-3.507-1.865-3.507-4.157 0-2.285 1.573-4.145 3.505-4.145l6.235-.01 2.613-.004 3.12-.005 2.473-.004h.403c-1.017-2.2-.531-5.206-.463-5.59l.175-.985H75.657l15.341 6.934v21.706l-7.814 4.012H64.78zm17.823-2.383l6.001-3.081V31.765L75.14 25.678h-14.82c-.076 1.163-.015 2.836.675 3.656.186.22.483.471 1.154.471l6.918.055-.008 2.384-11.89.01-5.486.012-7.99.01c-.524 0-1.112.754-1.112 1.762 0 1.015.588 1.773 1.111 1.773l7.901-.011 5.36-.011h4.031v2.383h-4.028l-.003.022c-.525 0-1.112.754-1.112 1.762 0 .465.133.912.365 1.225l.01.015c.203.283.472.445.737.445v.001h4.607v2.384h-4.612v-.002c-.503.005-1.107.828-1.107 1.85 0 1.007.575 1.684 1.112 1.684v.003h4.607v2.383h-4.63c-.633.027-1.09 1.112-1.09 1.847 0 1.015.565 1.773 1.07 1.773h25.694z"/>
        </g>
    </g>
</svg>
