<svg xmlns="http://www.w3.org/2000/svg" width="90" height="79" viewBox="0 0 90 79">
    <g fill="none" fill-rule="evenodd">
        <path fill="#696969" d="M83.865 44.747l-7.573-3.011H49.41l-7.573 3.011c-2.903 1.154-4.766 4.04-4.641 7.191l1.013 25.571h49.284l1.013-25.57c.125-3.152-1.737-6.038-4.641-7.192"/>
        <path fill="#B48764" d="M54.298 46.953h17.107V32.047H54.298z"/>
        <path fill="#C39772" d="M76.383 19.49h-1.23l-2.413-2.883c-11.071 2.281-16.873-2.447-16.873-2.447-.605 3.786-4.313 6.637-4.313 6.637l-2.276-1.307h-.002a2.437 2.437 0 0 0-.41.044c-1.199.227-2.006 1.36-2.006 2.566v.881c0 1.188.79 2.302 1.967 2.54.234.048.463.06.683.043a1.187 1.187 0 0 1 1.251.973c1.04 5.675 6.05 9.982 12.09 9.982 6.034 0 11.041-4.298 12.087-9.966a1.191 1.191 0 0 1 1.191-.981h.254c1.358 0 2.46-1.09 2.46-2.433v-1.216c0-1.343-1.102-2.432-2.46-2.432"/>
        <path fill="#EDEBED" d="M82.384 53.83l5.085-5.387a7.744 7.744 0 0 1 1.038 4.173l-.97 25.639h-7.206V59.083c0-1.97.738-3.86 2.053-5.253"/>
        <path fill="#FFA000" d="M65.702 46.953h-4.958l-1.24 30.556h7.438z"/>
        <path fill="#4B3F4E" d="M65.455 53.66l-.293-6.707h-5.366l-.292 6.707z"/>
        <path fill="#EDEBED" d="M63.223 46.656l-9.737-8.647-3.651 3.706 5.656 8.61a2.412 2.412 0 0 0 3.746.376l3.986-4.045z"/>
        <path fill="#EDEBED" d="M63.223 46.656l9.737-8.647 3.652 3.706-5.656 8.61a2.413 2.413 0 0 1-3.747.376l-3.986-4.045z"/>
        <path fill="#B48764" d="M65.455 37.017c-5.654-1.134-9.908-6.031-9.908-11.9v-8.72c-1.148 3.027-3.951 5.165-3.951 5.165l-2.297-1.304h-.001a2.483 2.483 0 0 0-.415.043c-1.209.228-2.023 1.358-2.023 2.563v.88c0 1.186.796 2.299 1.984 2.537.237.048.467.06.69.043a1.195 1.195 0 0 1 1.262.971c1.048 5.668 6.105 9.97 12.198 9.97.843-.001 1.664-.091 2.46-.248"/>
        <path fill="#0092DA" d="M41.653 52.088l-6.688-2.9H12.638l-6.688 2.9a7.384 7.384 0 0 0-4.456 7.084l.783 18.337h43.05l.782-18.337a7.384 7.384 0 0 0-4.456-7.084"/>
        <path fill="#FAD7A5" d="M17.107 52.17h11.901V40.245h-11.9z"/>
        <path fill="#D59F63" d="M23.802 7.453c8.216 0 14.876 6.34 14.876 14.16s-6.66 14.16-14.876 14.16-14.876-6.34-14.876-14.16 6.66-14.16 14.876-14.16"/>
        <path fill="#FFE1B4" d="M37.442 26.27c-.098-.033-.705-.052-.705-.052a2.474 2.474 0 0 1-1.739-.711l-1.693-1.268s-8.706 1.801-16.588-3.371c-.765 2.208-2.118 3.894-4.53 6.102l-2.331-.752h-.002a2.43 2.43 0 0 0-.413.044c-1.197.229-2.003 1.359-2.003 2.563v.88c0 1.186.789 2.298 1.965 2.537.236.048.465.06.685.043a1.184 1.184 0 0 1 1.25.97c1.038 5.67 6.047 9.971 12.085 9.971 6.025 0 11.027-4.285 12.078-9.938.111-.594.648-1.053 1.257-.998.257.023.526.007.8-.058 1.145-.269 1.891-1.378 1.863-2.542-.014-.551-.014-1.091-.014-1.091 0-1.144-.864-1.977-1.965-2.33"/>
        <path fill="#3470D6" d="M7.773 59.07l-4.27-5.41a7.611 7.611 0 0 0-2.01 5.477l.739 18.372h7.437V64.598c0-2.02-.67-3.977-1.896-5.529M38.343 59.07l4.27-5.41a7.611 7.611 0 0 1 2.009 5.477l-.738 18.372h-7.438V64.598c0-2.02.671-3.977 1.897-5.529"/>
        <path fill="#FAD7A5" d="M16.125 30.307v-8.694c-.823 1.528-2.052 2.903-3.893 4.577l-2.354-.753h-.002a2.471 2.471 0 0 0-.416.044c-1.208.229-2.022 1.361-2.022 2.568v.882c0 1.189.796 2.303 1.983 2.543.238.048.47.06.692.043a1.194 1.194 0 0 1 1.261.972c1.048 5.681 6.104 9.992 12.198 9.992.844 0 1.665-.09 2.461-.248-5.654-1.136-9.908-6.044-9.908-11.926"/>
        <path fill="#3470D6" d="M23.058 53.008l-7.438-7.546-3.72 3.773 4.588 7.554a1.23 1.23 0 0 0 1.86.297l4.71-4.078z"/>
        <path fill="#3470D6" d="M23.058 53.008l7.438-7.546 3.719 3.773-4.587 7.554a1.23 1.23 0 0 1-1.86.297l-4.71-4.078z"/>
        <path fill="#444" d="M55.234 58.132h-4.848c-.715 0-1.295.5-1.295 1.118 0 .618.58 1.118 1.295 1.118h4.848c.715 0 1.295-.5 1.295-1.118 0-.617-.58-1.118-1.295-1.118"/>
        <path fill="#444" d="M69.47 50.07a1.135 1.135 0 0 1-.844.507c-.203.02-.592.003-.928-.332l-3.05-3.054 7.898-6.917 2.068 2.07-5.144 7.725zm-8.01 1.922l.08-1.818 1.174-1.176 1.176 1.176.08 1.818h-2.51zm-4.656-1.415a1.135 1.135 0 0 1-.845-.508l-5.144-7.724 2.069-2.071 7.897 6.917-3.05 3.054a1.135 1.135 0 0 1-.927.332zM49.193 24.76c-.1.008-.204 0-.308-.02-.526-.108-.922-.663-.922-1.291v-.95c0-.614.41-1.167.933-1.259.44-.078.864.085 1.13.434.243.316.567.543.937.654a1.854 1.854 0 0 0 1.596-.256 9.6 9.6 0 0 0 2.168-2.122 1.324 1.324 0 0 0-.272-1.85 1.32 1.32 0 0 0-1.85.272c-.304.41-.649.783-1.028 1.113a3.778 3.778 0 0 0-1.433-.766 30.468 30.468 0 0 1-.944-7.456c0-2.026.624-3.45 1.854-4.231.96-.61 1.976-.634 1.976-.635.337 0 .666-.133.912-.365.032-.03 3.28-3.049 8.844-3.35 5.092-.275 9.024 1.012 11.369 3.723 2.364 2.732 3.15 6.927 2.297 12.177a5.734 5.734 0 0 0-1.127.079l-1.242-2.985a1.322 1.322 0 0 0-1.555-.771c-.122.032-12.326 3.129-17.443-3.249a1.32 1.32 0 0 0-1.858-.203 1.324 1.324 0 0 0-.203 1.86c5.226 6.513 15.594 5.096 19.046 4.405l.96 2.308a2.172 2.172 0 0 0 2.51 1.289c.427-.101.835-.104.989-.073.534.106.937.64.937 1.241v.965c0 .629-.396 1.184-.922 1.291a1.112 1.112 0 0 1-.307.021c-1.268-.092-2.443.83-2.676 2.1a11.028 11.028 0 0 1-10.846 9.042 11.028 11.028 0 0 1-10.846-9.042c-.234-1.27-1.408-2.194-2.676-2.1zM62.715 45.37l-7.333-6.423v-2.532a13.623 13.623 0 0 0 7.333 2.134c2.678 0 5.2-.777 7.333-2.134v2.532l-7.333 6.423zm21.69-1.39l-7.196-2.778-3.669-3.673a1.315 1.315 0 0 0-.85-.384v-2.922a13.646 13.646 0 0 0 3.458-6.817c.308.014.62-.01.926-.073 1.759-.36 3.035-1.994 3.035-3.883v-.965a3.967 3.967 0 0 0-1.164-2.814c1.167-6.354.206-11.531-2.792-14.997-2.9-3.352-7.571-4.954-13.51-4.633-5.486.297-9.027 2.824-10.15 3.749-.614.073-1.66.289-2.719.925-1.468.881-3.217 2.733-3.217 6.55 0 3.328.531 6.107.916 7.684-1.29.63-2.153 1.992-2.153 3.55v.95c0 1.89 1.277 3.523 3.035 3.883.307.063.619.088.927.074a13.647 13.647 0 0 0 3.457 6.816v2.923c-.31.02-.614.148-.85.383L48.22 41.2l-7.196 2.78a8.738 8.738 0 0 0-1.767.925A1.324 1.324 0 0 0 40 47.322c.256 0 .514-.074.742-.228a6.103 6.103 0 0 1 1.233-.646l6.679-2.58 5.106 7.668a3.78 3.78 0 0 0 3.161 1.692c.658 0 1.296-.173 1.86-.493L57.685 77.62a1.323 1.323 0 1 0 2.64.116l1.018-23.097h2.743l1.017 23.097a1.322 1.322 0 1 0 2.641-.116l-1.096-24.884a3.769 3.769 0 0 0 2.238.475 3.78 3.78 0 0 0 2.783-1.674l5.107-7.667 6.678 2.579a6.082 6.082 0 0 1 2.377 1.658l-4.569 4.574a8.697 8.697 0 0 0-2.56 6.187v18.81a1.322 1.322 0 1 0 2.643 0v-18.81c0-1.63.634-3.163 1.786-4.316l4.01-4.014c.16.591.236 1.213.21 1.849l-1.023 25.237a1.323 1.323 0 1 0 2.641.108l1.024-25.239a8.747 8.747 0 0 0-5.587-8.513z"/>
        <path fill="#444" d="M28.875 55.865l-3.512-3.019 5.439-5.478 2.023 2.038-3.95 6.459zm-10.891 0l-3.95-6.459 2.023-2.038 5.439 5.478-3.512 3.019zm5.446-11.52c1.693 0 3.322-.317 4.83-.895v2.737l-4.83 4.865-4.83-4.865V43.45c1.507.578 3.137.895 4.83.895zM12.65 32.656c-.23-1.27-1.4-2.193-2.659-2.1a1.127 1.127 0 0 1-.343-.029c-.5-.12-.878-.67-.878-1.282v-.95c0-.614.407-1.167.927-1.259.438-.077.858.085 1.123.434.241.316.563.543.93.655a1.833 1.833 0 0 0 1.587-.257 9.559 9.559 0 0 0 2.126-2.083 1.33 1.33 0 0 0-.262-1.852 1.307 1.307 0 0 0-1.838.263c-.298.4-.634.763-1.002 1.086a3.75 3.75 0 0 0-1.982-.88 12.406 12.406 0 0 1-.38-3.04c0-7.119 6.025-12.91 13.43-12.91 7.406 0 13.432 5.791 13.432 12.91 0 1.023-.128 2.04-.38 3.035a5.984 5.984 0 0 0-1.021.17l-.988-.818a2.51 2.51 0 0 0-1.752-.579c-1.93.115-11.817.378-16.889-5.737a1.307 1.307 0 0 0-1.85-.167 1.33 1.33 0 0 0-.165 1.864c2.501 3.015 6.17 5.055 10.905 6.06 3.625.771 6.847.696 8.11.624l1.54 1.276c.424.35 1.018.4 1.493.122.223-.122.969-.239 1.294-.174.531.107.931.64.931 1.242v.965c0 .612-.377 1.163-.878 1.282a1.115 1.115 0 0 1-.343.03c-1.258-.093-2.428.829-2.66 2.1-.955 5.239-5.488 9.042-10.778 9.042s-9.824-3.803-10.78-9.043zm10.78-30.01c2.794 0 5.15 1.795 5.848 4.228a16.429 16.429 0 0 0-5.848-1.068c-2.063 0-4.036.379-5.849 1.068.697-2.433 3.054-4.228 5.849-4.228zm18.219 48.266l-6.413-2.82-3.506-3.53a1.301 1.301 0 0 0-.844-.384v-2.081a13.668 13.668 0 0 0 5.893-8.896c.345.016.693-.017 1.036-.099 1.68-.4 2.9-2.023 2.9-3.857v-.965c0-1.34-.66-2.546-1.682-3.253.3-1.2.454-2.429.454-3.665 0-5.48-2.941-10.308-7.375-13.08C32.065 3.708 28.19 0 23.43 0s-8.636 3.708-8.683 8.282c-4.433 2.772-7.374 7.6-7.374 13.08 0 1.233.152 2.457.451 3.654-1.022.704-1.68 1.916-1.68 3.279v.95c0 1.834 1.22 3.456 2.9 3.857a3.74 3.74 0 0 0 1.037.1 13.668 13.668 0 0 0 5.893 8.895v2.081c-.308.02-.61.147-.844.384l-3.506 3.53-6.413 2.82c-3.262 1.435-5.353 4.806-5.202 8.39l.775 18.431a1.318 1.318 0 0 0 1.368 1.266 1.319 1.319 0 0 0 1.257-1.378l-.776-18.432a6.127 6.127 0 0 1 .832-3.332l3.447 4.167a7.387 7.387 0 0 1 1.69 4.7v12.953c0 .73.588 1.323 1.313 1.323s1.313-.592 1.313-1.323V64.724A10.05 10.05 0 0 0 8.93 58.33L5.265 53.9c.311-.215.642-.407.996-.563l5.589-2.457 3.95 6.457a2.538 2.538 0 0 0 2.165 1.218c.6 0 1.185-.214 1.649-.613l2.502-2.151v21.886c0 .73.588 1.323 1.314 1.323.725 0 1.313-.593 1.313-1.323V55.79l2.503 2.151a2.528 2.528 0 0 0 3.814-.604l3.95-6.458 5.588 2.457c.354.156.685.348.997.564l-3.665 4.43a10.05 10.05 0 0 0-2.298 6.393v12.953c0 .73.588 1.323 1.313 1.323.726 0 1.314-.592 1.314-1.323V64.724c0-1.714.6-3.383 1.689-4.7l3.447-4.167c.576.992.882 2.145.833 3.332l-.776 18.432A1.32 1.32 0 0 0 44.765 79c.7 0 1.281-.556 1.311-1.267l.776-18.431c.15-3.583-1.94-6.955-5.203-8.39z"/>
    </g>
</svg>
