<svg xmlns="http://www.w3.org/2000/svg" xmlns:xlink="http://www.w3.org/1999/xlink" width="90" height="75" viewBox="0 0 90 75">
    <defs>
        <path id="a" d="M0 74.825h90V.057H0z"/>
    </defs>
    <g fill="none" fill-rule="evenodd">
        <path fill="#CCC" d="M49.37 69.298H36.524l1.076-4.456 1.039-4.298h8.616l1.038 4.298z"/>
        <path fill="#999" d="M48.294 64.842H37.6l1.039-4.298 4.085-4.425 4.532 4.425z"/>
        <g transform="translate(0 .118)">
            <path fill="#CCC" d="M77.198 14.505v41.413c0 2.49-2.03 4.508-4.533 4.508H13.23c-2.503 0-4.532-2.019-4.532-4.508V14.505c0-2.49 2.03-4.508 4.532-4.508h59.433c2.504 0 4.534 2.018 4.534 4.508"/>
            <path fill="#E6E6E6" d="M77.198 14.505v41.413c0 2.49-2.03 4.508-4.533 4.508H36.25l14.217-50.43h22.197c2.503 0 4.532 2.02 4.532 4.509"/>
            <mask id="b" fill="#fff">
                <use xlink:href="#a"/>
            </mask>
            <path fill="#52D6C6" d="M8.699 54.24h68.499V16.18h-68.5z" mask="url(#b)"/>
            <path fill="#61E7D7" d="M77.198 16.181v38.06H37.995l10.73-38.06z" mask="url(#b)"/>
            <path fill="#898989" d="M88.547 4.552v34.203a3.101 3.101 0 0 1-3.11 3.093H68.406a3.1 3.1 0 0 1-3.11-3.093V4.552a3.1 3.1 0 0 1 3.11-3.093h17.031a3.101 3.101 0 0 1 3.11 3.093" mask="url(#b)"/>
            <path fill="#999" d="M88.547 4.552v34.203a3.101 3.101 0 0 1-3.11 3.093H70.702L82.087 1.459h3.35a3.101 3.101 0 0 1 3.11 3.093" mask="url(#b)"/>
            <path fill="#FC0" d="M65.296 34.026h23.25V9.281h-23.25z" mask="url(#b)"/>
            <path fill="#FCD8A9" d="M88.547 9.281v24.745h-15.64l6.975-24.745z" mask="url(#b)"/>
            <path fill="#898989" d="M32.618 36.041v34.203a3.102 3.102 0 0 1-3.11 3.093H4.564a3.101 3.101 0 0 1-3.11-3.093V36.041a3.101 3.101 0 0 1 3.11-3.094h24.944a3.103 3.103 0 0 1 3.11 3.094" mask="url(#b)"/>
            <path fill="#F16051" d="M1.454 65.514h31.164V40.77H1.454z" mask="url(#b)"/>
            <path fill="#999" d="M32.618 36.041v34.203a3.102 3.102 0 0 1-3.11 3.093H11.062l11.385-40.39h7.06a3.103 3.103 0 0 1 3.11 3.094" mask="url(#b)"/>
            <path fill="#F98791" d="M32.618 40.77v24.743h-19.35l6.974-24.742z" mask="url(#b)"/>
            <path fill="#444" d="M48.144 67.74h-9.1l1.406-5.826h6.288l1.406 5.825zM76.92 44.654c-.802 0-1.453.647-1.453 1.445v9.88a3.055 3.055 0 0 1-3.06 3.043H37.365a1.45 1.45 0 0 0-1.453 1.446c0 .798.65 1.445 1.453 1.445h.097l-1.673 6.933a1.44 1.44 0 0 0 .272 1.232c.275.348.696.55 1.14.55h19.634c.802 0 1.453-.646 1.453-1.445 0-.798-.65-1.445-1.453-1.445h-5.7l-1.407-5.825h22.68c3.29 0 5.966-2.661 5.966-5.933V46.1a1.45 1.45 0 0 0-1.454-1.446zM8.72 29.99a1.45 1.45 0 0 0 1.452-1.446V14.75a3.057 3.057 0 0 1 3.062-3.045H60.92a1.45 1.45 0 0 0 1.453-1.445 1.45 1.45 0 0 0-1.453-1.445H13.234c-3.291 0-5.968 2.662-5.968 5.935v13.794c0 .799.65 1.446 1.453 1.446" mask="url(#b)"/>
            <path fill="#444" d="M36.977 55.757h35.752a1.45 1.45 0 0 0 1.453-1.445 1.45 1.45 0 0 0-1.453-1.445H36.977a1.45 1.45 0 0 0-1.453 1.445c0 .798.65 1.445 1.453 1.445M62.374 16.417a1.45 1.45 0 0 0-1.453-1.445H12.912a1.45 1.45 0 0 0-1.453 1.445c0 .798.65 1.445 1.453 1.445h48.009a1.45 1.45 0 0 0 1.453-1.445M88.547 28.243A1.45 1.45 0 0 0 90 26.798V4.595C90 2.092 87.953.057 85.437.057H68.406c-2.516 0-4.563 2.035-4.563 4.538v34.204c0 2.502 2.047 4.538 4.563 4.538h17.031c2.516 0 4.563-2.036 4.563-4.538v-7.665a1.45 1.45 0 0 0-1.453-1.446 1.45 1.45 0 0 0-1.453 1.446v7.665c0 .908-.743 1.648-1.657 1.648H68.406c-.913 0-1.657-.74-1.657-1.648V4.595c0-.909.744-1.648 1.657-1.648h17.031c.913 0 1.657.74 1.657 1.648v22.203c0 .798.65 1.445 1.453 1.445" mask="url(#b)"/>
            <path fill="#444" d="M84.397 7.88H69.446a1.45 1.45 0 0 0-1.454 1.445c0 .798.65 1.445 1.454 1.445h14.951a1.45 1.45 0 0 0 1.453-1.445 1.45 1.45 0 0 0-1.453-1.445M85.85 34.068c0-.798-.65-1.445-1.453-1.445H69.446a1.45 1.45 0 0 0-1.454 1.445c0 .799.65 1.446 1.454 1.446h14.951c.803 0 1.453-.647 1.453-1.446M29.507 31.545H4.563C2.047 31.545 0 33.58 0 36.083v8.604c0 .798.65 1.445 1.453 1.445a1.45 1.45 0 0 0 1.453-1.445v-8.604c0-.909.744-1.648 1.657-1.648h24.944c.914 0 1.657.74 1.657 1.648v34.204c0 .908-.743 1.648-1.657 1.648H4.563c-.913 0-1.657-.74-1.657-1.648V49.15a1.45 1.45 0 0 0-1.453-1.445A1.45 1.45 0 0 0 0 49.15v21.136c0 2.502 2.047 4.538 4.563 4.538h24.944c2.516 0 4.563-2.036 4.563-4.538V36.083c0-2.502-2.047-4.538-4.563-4.538" mask="url(#b)"/>
            <path fill="#444" d="M5.271 42.259H28.8a1.45 1.45 0 0 0 1.453-1.446 1.45 1.45 0 0 0-1.453-1.445H5.27a1.45 1.45 0 0 0-1.453 1.445c0 .798.65 1.446 1.453 1.446M5.271 67.002H28.8a1.45 1.45 0 0 0 1.453-1.445c0-.798-.65-1.445-1.453-1.445H5.27c-.803 0-1.453.647-1.453 1.445s.65 1.445 1.453 1.445M76.921 36.51a1.45 1.45 0 0 1 1.454 1.445 1.45 1.45 0 0 1-1.454 1.446 1.45 1.45 0 0 1-1.453-1.446c0-.798.65-1.445 1.453-1.445M17.035 68.08a1.45 1.45 0 0 1 1.453 1.446 1.45 1.45 0 0 1-1.453 1.445 1.45 1.45 0 0 1-1.453-1.445c0-.798.65-1.445 1.453-1.445" mask="url(#b)"/>
        </g>
    </g>
</svg>
