<svg xmlns="http://www.w3.org/2000/svg" width="89" height="90" viewBox="0 0 89 90">
    <g fill="none" fill-rule="evenodd">
        <path fill="#BAB9B9" d="M19.339 20.713V7.167c0-3.135 2.557-5.7 5.682-5.7h39.17c3.126 0 5.682 2.565 5.682 5.7v75.894c0 3.136-2.556 5.701-5.682 5.701h-39.17c-3.125 0-5.682-2.565-5.682-5.701V20.713z"/>
        <path fill="#52D6C6" d="M19.339 74.6h50.534V15.05H19.34z"/>
        <path fill="#FFF" d="M27.506 53.613V33.926a2.81 2.81 0 0 1 2.806-2.813h28.902a2.81 2.81 0 0 1 2.806 2.813v19.687a2.81 2.81 0 0 1-2.806 2.813H30.312a2.81 2.81 0 0 1-2.806-2.813"/>
        <path fill="#DCDCDC" d="M30.416 56.602H59.46c.8 0 1.52-.335 2.034-.87L48.678 42.89l-7.504.024-12.792 12.817c.513.535 1.234.87 2.034.87"/>
        <path fill="#DCDCDC" d="M59.47 31.113H30.406c-.277 0-.545.041-.798.116L41.342 42.98a5.08 5.08 0 0 0 7.192 0l11.734-11.752a2.818 2.818 0 0 0-.798-.116"/>
        <path fill="#444" d="M28.215 33.949c0-.822.468-1.535 1.15-1.888.014.018.03.036.047.053l10.702 10.745-4.452 4.469a.71.71 0 0 0 0 1 .703.703 0 0 0 .997 0l4.468-4.485a5.776 5.776 0 0 0 7.447 0l11.763 11.81c-.29.15-.618.236-.966.236H30.33c-.348 0-.677-.085-.966-.235l3.357-3.371a.71.71 0 0 0-.498-1.208c-.18 0-.361.069-.499.207l-3.328 3.342a2.118 2.118 0 0 1-.181-.858V33.949zm19.73 8.557a4.369 4.369 0 0 1-6.19 0L31.12 31.826h27.463l-2.397 2.406H43.811a.706.706 0 0 0-.705.708c0 .39.316.708.705.708h10.965l-1.974 1.981h-5.215a.706.706 0 0 0-.705.708c0 .39.316.708.705.708h3.805l-3.447 3.46zm13.54-8.557v19.817c0 .305-.064.595-.18.858L49.587 42.858 60.29 32.114a.717.717 0 0 0 .048-.053 2.126 2.126 0 0 1 1.149 1.888zM30.33 57.305H59.37a3.536 3.536 0 0 0 3.525-3.54V33.95a3.536 3.536 0 0 0-3.525-3.539H30.33a3.536 3.536 0 0 0-3.525 3.539v19.817a3.536 3.536 0 0 0 3.525 3.539z"/>
        <path fill="#444" d="M41.084 34.102a.793.793 0 0 0-.789.79.793.793 0 0 0 .788.791.791.791 0 0 0 0-1.581M34.25 50.625a.79.79 0 1 0-.557-1.35.797.797 0 0 0 0 1.118c.147.148.35.232.558.232"/>
        <path fill="#FDC00F" d="M45.002 84.321a2.48 2.48 0 0 1-2.47-2.478 2.48 2.48 0 0 1 2.47-2.477 2.48 2.48 0 0 1 2.47 2.477 2.48 2.48 0 0 1-2.47 2.478"/>
        <path fill="#FFF" d="M64.191 1.467h-4.615V72.73c0 3.135-2.557 5.7-5.682 5.7H19.339v4.631c0 3.136 2.557 5.701 5.682 5.701h39.17c3.126 0 5.682-2.565 5.682-5.7V7.167c0-3.136-2.556-5.701-5.682-5.701" opacity=".3"/>
        <path fill="#444" d="M68.423 13.586h-47.89V7.04c0-2.408 1.953-4.367 4.353-4.367H64.07c2.4 0 4.352 1.96 4.352 4.367v6.547zm0 69.375c0 2.408-1.952 4.367-4.352 4.367H24.886c-2.4 0-4.353-1.96-4.353-4.367v-7.128h47.89v7.128zM64.071 0H24.886c-3.869 0-7.016 3.158-7.016 7.04v13.55c0 .738.596 1.336 1.332 1.336.735 0 1.331-.598 1.331-1.336V16.26h47.89V73.16h-47.89V29.418c0-.738-.596-1.336-1.331-1.336-.736 0-1.332.598-1.332 1.336V82.96c0 3.881 3.147 7.039 7.016 7.039H64.07c3.868 0 7.015-3.158 7.015-7.039V7.039C71.086 3.158 67.94 0 64.071 0zM5.579 48.516c-.349 0-.698-.133-.963-.397-6.154-6.117-6.154-16.07 0-22.188a1.367 1.367 0 0 1 1.926 0c.533.53.533 1.386 0 1.916-5.09 5.06-5.09 13.295 0 18.357.533.53.533 1.385 0 1.915a1.36 1.36 0 0 1-.963.397zm5.79-3.102c-.35 0-.702-.133-.97-.398a11.49 11.49 0 0 1-3.437-8.224c0-3.109 1.22-6.03 3.437-8.222a1.381 1.381 0 0 1 1.94 0c.538.53.538 1.39 0 1.92a8.803 8.803 0 0 0-2.632 6.302 8.81 8.81 0 0 0 2.633 6.303c.537.53.537 1.39 0 1.92-.27.266-.62.399-.97.399zM83.374 48.47c.349 0 .698-.133.964-.397 6.153-6.117 6.153-16.07 0-22.187a1.367 1.367 0 0 0-1.927 0 1.347 1.347 0 0 0 0 1.915c5.09 5.06 5.09 13.295 0 18.357a1.347 1.347 0 0 0 0 1.915c.267.266.614.397.963.397zm-5.79-3.102c.351 0 .702-.133.97-.398a11.49 11.49 0 0 0 3.437-8.224c0-3.108-1.22-6.03-3.437-8.222a1.381 1.381 0 0 0-1.94 0 1.347 1.347 0 0 0 0 1.92 8.803 8.803 0 0 1 2.632 6.302 8.81 8.81 0 0 1-2.633 6.303 1.347 1.347 0 0 0 0 1.92c.27.266.62.399.97.399z"/>
        <path fill="#444" d="M43.267 82.793h2.422v-2.275h-2.422v2.275zm-1.331 2.672h5.085c.735 0 1.331-.598 1.331-1.336v-4.947c0-.738-.596-1.336-1.331-1.336h-5.085c-.736 0-1.332.598-1.332 1.336v4.947c0 .738.596 1.336 1.332 1.336zM51.53 6.633H38.528c-.736 0-1.332.598-1.332 1.336 0 .738.596 1.336 1.332 1.336h13c.736 0 1.332-.598 1.332-1.336 0-.738-.596-1.336-1.332-1.336"/>
    </g>
</svg>
