<svg xmlns="http://www.w3.org/2000/svg" xmlns:xlink="http://www.w3.org/1999/xlink" width="56" height="90" viewBox="0 0 56 90">
    <defs>
        <path id="a" d="M0 89.808h56V0H0z"/>
    </defs>
    <g fill="none" fill-rule="evenodd">
        <path fill="#F3F3F3" d="M44.694 32.87a2 2 0 0 0-2.279.002 15.447 15.447 0 0 0-6.637 12.672v-9.95l3.111-6.046v-9.14c0-6.555-2.564-12.719-7.222-17.356-1.945-1.939-5.39-1.939-7.335 0-4.657 4.636-7.22 10.798-7.22 17.356v9.14l3.11 6.046v9.95a15.45 15.45 0 0 0-6.639-12.675 2 2 0 0 0-2.279.002 15.45 15.45 0 0 0-6.637 12.673v39.617h46.666V45.544c0-5.046-2.482-9.786-6.639-12.673"/>
        <path fill="#CDCCCC" d="M4.667 71.226c-1.912 2.178-3.111 4.995-3.111 8.115v5.82h6.222v-5.82c0-3.12-1.2-5.937-3.111-8.115"/>
        <mask id="b" fill="#fff">
            <use xlink:href="#a"/>
        </mask>
        <path fill="#DEDEDD" d="M6.222 49.548h12.445v-3.096H6.222z" mask="url(#b)"/>
        <path fill="#CDCCCC" d="M51.333 71.226V45.544c0-6.81-3.889-10.448-7.777-13.028v51.097H54.444v-4.272c0-3.12-1.199-5.937-3.11-8.115" mask="url(#b)"/>
        <path fill="#DEDEDD" d="M37.333 49.548h12.445v-3.096H37.333zM6.222 68.129h12.445v-3.097H6.222zM37.333 68.129h12.445v-3.097H37.333z" mask="url(#b)"/>
        <path fill="#CDCCCC" d="M38.889 29.548v-9.14c0-6.555-2.564-12.72-7.22-17.358A5.172 5.172 0 0 0 28 1.548v28H17.761l3.111 6.193H28v47.872h10.889V79.34c0-3.12-1.2-5.937-3.111-8.115V35.74l3.11-6.193z" mask="url(#b)"/>
        <path fill="#CDCCCC" d="M20.222 71.226V45.544c0-6.81-3.889-10.448-7.778-13.028v52.645h10.89v-5.82c0-3.12-1.2-5.937-3.112-8.115" mask="url(#b)"/>
        <path fill="#444" d="M52.889 83.613h-3.111v-4.272c0-1.962.532-3.836 1.555-5.51a10.47 10.47 0 0 1 1.556 5.51v4.272zm-6.222-4.272v4.272h-6.223v-4.272c0-3.108-1.126-6.127-3.11-8.61v-2.602h12.444v2.603c-1.987 2.482-3.111 5.501-3.111 8.609zm-12.445 4.272v-4.272c0-1.964.532-3.838 1.556-5.51a10.481 10.481 0 0 1 1.555 5.51v4.272h-3.11zm-3.11 0h-6.223v-4.272c0-3.11-1.125-6.129-3.111-8.61v-33.57h12.444v33.572c-1.986 2.48-3.11 5.497-3.11 8.61v4.27zm-9.334 0h-3.111v-4.272c0-1.962.532-3.836 1.555-5.51a10.47 10.47 0 0 1 1.556 5.51v4.272zm-6.222-4.272v4.272H9.333v-4.272c0-3.108-1.126-6.127-3.11-8.61v-2.628c3.457-.005 8.99.006 12.444.015v2.61c-1.987 2.486-3.111 5.505-3.111 8.613zM3.11 83.613v-4.272c0-1.964.532-3.838 1.556-5.51a10.481 10.481 0 0 1 1.555 5.51v4.272h-3.11zm3.111-18.58h12.445V49.547H6.222v15.484zm0-19.489c0-4.549 2.234-8.804 5.972-11.402a.449.449 0 0 1 .502 0 13.887 13.887 0 0 1 5.97 11.402v.908H6.223v-.908zM35.81 30.968l-1.588 3.097H21.778l-1.588-3.097h15.62zM18.667 20.406c0-6.099 2.434-11.947 6.765-16.26A3.63 3.63 0 0 1 28 3.095c.933 0 1.867.35 2.568 1.05a22.95 22.95 0 0 1 6.765 16.262v7.463H18.667v-7.465zm18.666 44.626h12.445V49.548H37.333v15.484zm5.972-30.892a.449.449 0 0 1 .502.001 13.887 13.887 0 0 1 5.97 11.403v.908H37.334v-.908c0-4.55 2.234-8.806 5.972-11.404zM56 79.341c0-3.11-1.125-6.129-3.111-8.61V45.544A16.997 16.997 0 0 0 45.59 31.6a3.563 3.563 0 0 0-2.034-.633c-.733 0-1.436.22-2.034.635a17.036 17.036 0 0 0-4.19 4.177v-.97l2.77-5.401.342-.665v-8.336c0-6.968-2.725-13.52-7.675-18.45A6.712 6.712 0 0 0 28 0a6.712 6.712 0 0 0-4.77 1.957c-4.95 4.929-7.674 11.482-7.674 18.45v8.337l.34.663 2.77 5.402v.971a17.046 17.046 0 0 0-4.187-4.177 3.551 3.551 0 0 0-2.035-.635c-.732 0-1.435.22-2.033.635a16.994 16.994 0 0 0-7.3 13.941v25.19C1.125 73.213 0 76.23 0 79.342v7.368h4.667L3.11 89.808h6.222l-1.555-3.097h3.11l-1.555 3.097h6.223L14 86.711h3.111l-1.555 3.097h6.222l-1.556-3.097h6.222l-1.555 3.097h6.222l-1.555-3.097h6.222l-1.556 3.097h6.222l-1.555-3.097H42l-1.556 3.097h6.223l-1.556-3.097h3.111l-1.555 3.097h6.222l-1.556-3.097H56v-7.37z" mask="url(#b)"/>
        <path fill="#7AA2CE" d="M28 40.258c.859 0 1.556.693 1.556 1.548 0 .856-.697 1.549-1.556 1.549-.86 0-1.556-.693-1.556-1.549 0-.855.697-1.548 1.556-1.548M28.778 46.452h-2.334v3.096h3.112v-2.322a.776.776 0 0 0-.778-.774M26.444 55.742h3.112L28 52.645zM26.444 59.613v1.548c0 .428.349.775.778.775h2.334v-3.097h-2.334a.775.775 0 0 0-.778.774M26.444 68.129h3.112v-3.097h-3.112zM26.444 74.323h3.112v-3.097h-3.112z" mask="url(#b)"/>
    </g>
</svg>
