<svg xmlns="http://www.w3.org/2000/svg" width="90" height="86" viewBox="0 0 90 86">
    <g fill="none" fill-rule="evenodd">
        <path fill="#E0E0E2" d="M1.327 15.714s.127 45.65 0 50.548c.127 4.686 3.963 8.447 8.68 8.447h43.555l28.906-28.906v-30.09H1.327z"/>
        <path fill="#FC0" d="M79.13 75.202H64.692L79.13 60.766v14.436zm-35.425 9.364h44.974V39.592L43.705 84.566z"/>
        <path fill="#FFA304" d="M84.276 43.995v40.571h4.403V39.592z"/>
        <path fill="#C6C5CA" d="M78.064 15.714v34.492l4.404-4.403v-30.09z"/>
        <path fill="#444" d="M77.808 73.881h-9.926l9.926-9.926v9.926zm1.827-14.336a1.321 1.321 0 0 0-1.44.286L63.76 74.268a1.322 1.322 0 0 0 .934 2.255H79.13c.73 0 1.32-.592 1.32-1.321V60.766c0-.535-.322-1.016-.815-1.22z"/>
        <path fill="#444" d="M46.894 83.245l7.6-7.6 3.38-3.38 2.363-2.363a1.321 1.321 0 0 0 0-1.868c-.704-.508-1.412-.456-1.869 0l-5.353 5.354H10.007a7.323 7.323 0 0 1-7.359-7.127 7.777 7.777 0 0 1 .365-2.13l.116-.334a7.43 7.43 0 0 1 .274-.643 7.782 7.782 0 0 1 5.762-4.304 7.192 7.192 0 0 1 .74-.081c.223-.013.354-.017.485-.017.729 0 1.32-.591 1.32-1.32v-9.579a1.32 1.32 0 1 0-2.641 0v8.34a10.317 10.317 0 0 0-6.427 3.391v-49.19c0-3.822 2.782-7.007 6.427-7.636V42.57a1.321 1.321 0 0 0 2.642 0V17.036h69.435v28.22L62.251 64.153a1.321 1.321 0 0 0 0 1.868c.342.289.638.387.934.387.295 0 .592-.098.833-.296a30760.22 30760.22 0 0 0 23.34-23.33v11.655h-2.437a1.32 1.32 0 1 0 0 2.641h2.437v3.981h-2.437a1.32 1.32 0 1 0 0 2.642h2.437v3.98h-2.437a1.32 1.32 0 1 0 0 2.643h2.437v3.98h-2.437a1.321 1.321 0 1 0 0 2.643h2.437v6.3H46.894zm40.85-44.587l-3.955 3.956v-26.9a1.32 1.32 0 0 0-1.321-1.32h-10.15l-19.603-.001H11.71V1.324c0-.73-.592-1.32-1.321-1.32C4.66.003 0 4.663 0 10.393V66.5c0 .098.011.193.031.284a9.95 9.95 0 0 0 2.992 6.404 9.95 9.95 0 0 0 6.984 2.842h40.366l-7.603 7.602a1.321 1.321 0 0 0 .934 2.255H88.68c.73 0 1.321-.591 1.321-1.32V39.591a1.321 1.321 0 0 0-2.255-.934z"/>
        <g>
            <path fill="#3C7715" d="M19 45h44V24H19z"/>
            <path fill="#4C8C23" d="M23 48h44V27H23z"/>
            <path fill="#579E2E" d="M26 52h45V31H26z"/>
            <path fill="#75BF4D" d="M70.94 35.832V51.89H35.012v-2.152c0-7.68 6.158-13.907 13.756-13.907H70.94z"/>
            <path fill="#AEB9CC" d="M57.08 41.21c0 4.684-3.757 8.48-8.391 8.48a8.272 8.272 0 0 1-2.964-.545c-3.17-1.21-5.426-4.307-5.426-7.936 0-4.682 3.757-8.48 8.39-8.48a8.335 8.335 0 0 1 6.562 3.197 8.492 8.492 0 0 1 1.828 5.283"/>
            <path fill="#C8D0E2" d="M57.08 41.21c0 4.684-3.757 8.48-8.391 8.48a8.272 8.272 0 0 1-2.964-.545 8.493 8.493 0 0 1-1.829-5.284c0-4.683 3.757-8.48 8.39-8.48 1.044 0 2.042.192 2.964.545a8.49 8.49 0 0 1 1.83 5.283"/>
            <path fill="#444" d="M48.766 34.119c3.94 0 7.146 3.24 7.146 7.223 0 3.983-3.205 7.223-7.146 7.223-3.94 0-7.145-3.24-7.145-7.223 0-3.983 3.205-7.223 7.145-7.223m0 16.497c5.06 0 9.175-4.16 9.175-9.274 0-5.114-4.116-9.274-9.175-9.274-5.058 0-9.174 4.16-9.174 9.274 0 5.114 4.116 9.274 9.174 9.274"/>
            <path fill="#444" d="M47.938 46.514c0 .031.016.047.046.047h1.328c.04 0 .061-.021.061-.062v-1.45c.865-.292 1.499-.695 1.902-1.21.33-.421.494-.836.494-1.244 0-.793-.366-1.37-1.099-1.728a4.394 4.394 0 0 0-1.015-.347c-.36-.077-.7-.154-1.015-.231a2.895 2.895 0 0 1-.786-.301c-.208-.124-.313-.319-.313-.586 0-.268.105-.448.313-.54.209-.093.46-.14.756-.14 1.005 0 1.834.32 2.488.957v-1.774c-.244-.272-.84-.473-1.786-.602V35.53c0-.03-.02-.046-.061-.046h-1.328c-.04 0-.061.02-.061.062v1.743a4.172 4.172 0 0 0-.954.521c-.32.229-.55.48-.687.752-.137.273-.206.612-.206 1.018 0 .407.105.754.313 1.042.37.51.972.86 1.809 1.049l1.022.232c.314.07.575.16.785.269.21.108.314.27.314.486 0 .386-.242.653-.727.803-.2.062-.507.092-.92.092-.58 0-1.105-.139-1.573-.416a2.716 2.716 0 0 1-1.068-1.157v2.082c.63.388 1.282.681 1.953.88l.015 1.573z"/>
            <path fill="#444" d="M20.03 44.282V25.067h42.26v1.19H22.039v18.025H20.03zm46.299-14.598H25.607v17.838h-1.54V28.307H66.33v1.377zM27.636 50.949h42.261V31.735H27.636v19.214zm-5.598-1.376h3.569V53h46.32V29.684h-3.569v-3.428H64.32v-3.24H18v23.317h4.038v3.24z"/>
        </g>
    </g>
</svg>
