<svg xmlns="http://www.w3.org/2000/svg" width="30" height="30" viewBox="0 0 30 30">
    <path fill="#FFF" fill-rule="evenodd" d="M27.572 0c1.095 0 1.952.914 2 2.081 0 1.168-.858 2.081-1.953 2.081H1.953C.857 4.162 0 3.25 0 2.082 0 .913.857 0 1.953 0h25.619zm.4 25.94c1.11 0 1.98.89 2.028 2.03 0 1.139-.87 2.03-1.98 2.03H1.98C.87 30 0 29.109 0 27.97c0-1.14.87-2.03 1.98-2.03h25.991zm0-13.199c1.11 0 1.98.892 2.028 2.03 0 1.14-.87 2.031-1.98 2.031H1.98c-1.11 0-1.98-.891-1.98-2.03 0-1.14.87-2.03 1.98-2.03h25.991z"/>
</svg>
