<svg xmlns="http://www.w3.org/2000/svg" width="16" height="16" viewBox="0 0 16 16">
    <path fill="#FFF" fill-rule="evenodd" d="M.013 2.939c.044-.49.233-.9.589-1.254L1.981.313C2.195.107 2.433 0 2.662 0c.226 0 .456.107.667.32.249.23.482.47.734.724.126.129.256.258.386.39l1.104 1.1c.23.228.348.46.348.689 0 .228-.118.46-.348.69l-.345.346c-.344.347-.667.675-1.023.988l-.018.019c-.308.306-.26.597-.185.818l.01.03c.286.682.683 1.331 1.301 2.105 1.112 1.365 2.283 2.423 3.573 3.238.159.103.33.184.489.266.148.073.285.143.407.22.015.008.026.016.041.023.122.063.241.092.36.092.296 0 .489-.188.552-.25l1.386-1.38c.215-.214.448-.328.678-.328.281 0 .511.173.656.328l2.234 2.22c.445.443.441.922-.01 1.39-.157.166-.32.325-.494.49-.26.251-.53.51-.774.8-.426.458-.934.672-1.59.672-.063 0-.13-.004-.193-.007-1.215-.078-2.345-.55-3.194-.952a18.011 18.011 0 0 1-6.007-4.683C2.025 8.702 1.095 7.161.48 5.51.098 4.495-.046 3.68.013 2.94"/>
</svg>
