<svg xmlns="http://www.w3.org/2000/svg" width="20" height="20" viewBox="0 0 20 20">
    <path fill="#F95428" fill-rule="evenodd" d="M19.529 14.95c.314.314.471.695.471 1.144 0 .45-.157.83-.471 1.145l-2.29 2.29a1.559 1.559 0 0 1-1.145.471c-.449 0-.83-.157-1.145-.471L10 14.579l-4.95 4.95A1.559 1.559 0 0 1 3.907 20c-.45 0-.83-.157-1.145-.471l-2.29-2.29A1.559 1.559 0 0 1 0 16.094c0-.449.157-.83.471-1.145L5.421 10 .47 5.05A1.559 1.559 0 0 1 0 3.907c0-.45.157-.83.471-1.145L2.761.47A1.559 1.559 0 0 1 3.906 0c.449 0 .83.157 1.145.471L10 5.421 14.95.47A1.559 1.559 0 0 1 16.093 0c.45 0 .83.157 1.145.471l2.29 2.29c.314.314.471.696.471 1.145 0 .449-.157.83-.471 1.145L14.579 10l4.95 4.95z"/>
</svg>
