<svg xmlns="http://www.w3.org/2000/svg" width="187" height="46" viewBox="0 0 187 46">
    <g fill="none" fill-rule="evenodd">
        <text fill="#FCFAFA" font-family="GothamPro-Bold, Gotham Pro" font-size="18" font-weight="bold">
            <tspan x="48" y="16">Web-design </tspan> <tspan x="48" y="36">&amp; development</tspan>
        </text>
        <path fill="#F5F6F8" d="M25.37 31.03l-.004.002-7.866 4.19-7.866-4.19-.004-.002-6.783-3.612 6.358-3.386 2.87 1.529.015.007 4.984 2.655a.907.907 0 0 0 .852 0l1.66-.884.015-.009 3.307-1.76.019-.01 2.868-1.528 6.358 3.386-6.783 3.612zm6.783 5.224L17.5 44.057 2.847 36.254l6.358-3.386 7.869 4.19a.908.908 0 0 0 .852 0l7.87-4.19 6.357 3.386zM6.775 20.674V16.49l1.506-.802v5.789l-1.506-.802zm4.83-4.2v6.772l-1.506-.802v-6.771l1.506.802zm3.324 1.77v6.772l-1.506-.802v-6.771l1.506.802zm3.325.969v6.772l-.754.4-.753-.4v-6.772l.327.174a.907.907 0 0 0 .852 0l.328-.174zm3.323-1.77v6.771l-1.506.802v-6.771l1.506-.802zm3.324-1.77v6.771l-1.506.802v-6.771l1.506-.802zM2.847 9.746L17.5 1.943l14.653 7.803L17.5 17.55l-1.177-.627a.921.921 0 0 0-.125-.066l-6.567-3.498-6.784-3.613zm25.378 6.744v4.185l-1.506.802v-5.79l1.506.803zM4.957 19.706l-2.11-1.124 2.11-1.124v2.248zm25.086-2.248l2.11 1.124-2.11 1.124v-2.248zM35 27.418a.912.912 0 0 0-.483-.805L27.734 23l1.826-.972a1.06 1.06 0 0 0 .033-.019l4.924-2.622a.912.912 0 0 0 0-1.61l-6.783-3.613 6.783-3.613a.912.912 0 0 0 0-1.61L17.927.106a.906.906 0 0 0-.853 0L.483 8.941a.912.912 0 0 0 0 1.61l6.783 3.613-6.783 3.613a.912.912 0 0 0 0 1.61l4.924 2.622.033.019L7.266 23 .483 26.613a.912.912 0 0 0 0 1.61l6.784 3.613-6.784 3.613a.912.912 0 0 0 0 1.61l16.59 8.835a.907.907 0 0 0 .853 0l16.591-8.835a.912.912 0 0 0 0-1.61l-6.784-3.613 6.784-3.613a.912.912 0 0 0 .483-.805zm-9.408-16.475a.908.908 0 0 0-1.206-.446l-7.276 3.368a.913.913 0 0 0 .382 1.74.904.904 0 0 0 .38-.085l7.276-3.367a.913.913 0 0 0 .444-1.21m1.889-1.81c-1.17 0-1.172 1.824 0 1.824 1.17 0 1.171-1.823 0-1.823"/>
    </g>
</svg>
