<svg xmlns="http://www.w3.org/2000/svg" width="82" height="82" viewBox="0 0 82 82">
    <path fill="#FFF" fill-rule="evenodd" d="M41 39.678a2.647 2.647 0 0 1-2.645-2.644A2.647 2.647 0 0 1 41 34.389a2.647 2.647 0 0 1 2.644 2.645A2.647 2.647 0 0 1 41 39.678m6.008 9.121l-.719.37v2.41h-3.967v-9.444c2.276-.591 3.967-2.645 3.967-5.102A5.295 5.295 0 0 0 41 31.744a5.295 5.295 0 0 0-5.288 5.29c0 2.456 1.69 4.51 3.967 5.1v9.445H35.71v-2.41l-.72-.368c-4.45-2.277-7.214-6.786-7.214-11.768 0-7.29 5.932-13.223 13.223-13.223 7.29 0 13.223 5.932 13.223 13.223 0 4.982-2.765 9.49-7.215 11.766m-.058 6.747h-11.9a.663.663 0 0 1-.661-.661c0-.364.297-.661.66-.661H46.95c.364 0 .661.297.661.66a.663.663 0 0 1-.66.662m0 3.967H35.05a.663.663 0 0 1-.661-.661c0-.364.297-.662.66-.662H46.95a.663.663 0 0 1 0 1.322M41 21.167c-8.75 0-15.868 7.118-15.868 15.868a15.795 15.795 0 0 0 7.934 13.73v1.493a3.291 3.291 0 0 0-1.322 2.63c0 .746.258 1.429.677 1.983a3.267 3.267 0 0 0-.677 1.982 3.309 3.309 0 0 0 3.305 3.306H46.95a3.308 3.308 0 0 0 3.306-3.306c0-.747-.258-1.43-.677-1.984.42-.554.677-1.236.677-1.983a3.292 3.292 0 0 0-1.323-2.629v-1.494a15.794 15.794 0 0 0 7.934-13.73c0-8.748-7.117-15.866-15.867-15.866m32.458 52.293c-5.385 5.387-13.798 7.165-23.698 4.997-3.213-.703-6.454-1.796-9.662-3.235 7.385-2.813 14.662-7.61 21.002-13.926a5.883 5.883 0 0 0 3.04.863c3.28 0 5.95-2.67 5.95-5.95 0-1.486-.565-2.83-1.468-3.873 2.833-4.045 5.036-8.176 6.593-12.247 1.443 3.212 2.537 6.457 3.24 9.674 2.164 9.893.39 18.31-4.997 23.697m-6.012-17.252a3.309 3.309 0 0 1-3.306 3.306 3.309 3.309 0 0 1-3.306-3.306 3.309 3.309 0 0 1 3.306-3.306 3.309 3.309 0 0 1 3.306 3.306m-46.914 5.261c-4.996-4.995-9.101-10.526-12.12-16.234.619-1.925 1.412-3.887 2.35-5.868.573.186 1.174.312 1.808.312 3.28 0 5.95-2.67 5.95-5.95 0-1.653-.68-3.147-1.77-4.227a64.657 64.657 0 0 1 5.921-6.83C29.65 15.693 37.613 10.838 45.22 8.403c5.713 3.019 11.249 7.128 16.25 12.128 5 5 9.107 10.537 12.127 16.249-1.475 4.587-3.851 9.33-7.095 13.971a5.892 5.892 0 0 0-2.361-.494c-3.28 0-5.95 2.67-5.95 5.95a5.9 5.9 0 0 0 .987 3.269c-6.94 6.897-14.843 11.705-22.393 14.122-5.713-3.02-11.251-7.128-16.252-12.13m-8.65 8.651C6.996 65.233 5.515 57.572 7.43 48.9c2.975 5.076 6.762 9.969 11.232 14.438 4.478 4.479 9.38 8.271 14.466 11.25-8.495 1.872-16.241.537-21.246-4.469m3.995-36.391a3.31 3.31 0 0 1-3.306 3.306 3.31 3.31 0 0 1-3.306-3.306 3.31 3.31 0 0 1 3.306-3.306 3.31 3.31 0 0 1 3.306 3.306M3.545 32.24c-2.165-9.893-.39-18.31 4.997-23.698 3.89-3.89 9.357-5.896 15.823-5.896 2.488 0 5.124.297 7.875.9 3.213.703 6.455 1.795 9.661 3.234-7.423 2.828-14.736 7.657-21.1 14.021a66.932 66.932 0 0 0-6.321 7.319 5.854 5.854 0 0 0-1.91-.342c-3.28 0-5.95 2.67-5.95 5.95 0 1.691.717 3.21 1.853 4.295a52.565 52.565 0 0 0-1.687 3.89c-1.443-3.21-2.538-6.455-3.241-9.673m66.573-20.358c4.953 4.954 6.356 12.672 4.466 21.242-2.978-5.085-6.77-9.986-11.246-14.462-4.476-4.478-9.378-8.269-14.462-11.246 8.493-1.872 16.238-.537 21.242 4.466M81.04 49.195c-.927-4.235-2.498-8.51-4.619-12.695 3.084-10.555 1.715-20.341-4.432-26.488C66.513 4.538 58.123 2.7 48.347 4.837c-.95.208-1.903.461-2.856.74-4.185-2.12-8.455-3.689-12.687-4.614C21.999-1.403 12.719.625 6.672 6.673.625 12.72-1.402 22 .962 32.804c.926 4.235 2.496 8.51 4.617 12.695-3.14 10.702-1.65 20.408 4.432 26.489 3.987 3.987 9.52 6.044 16.005 6.044 2.422 0 4.978-.288 7.635-.869.95-.207 1.902-.461 2.856-.739 4.185 2.119 8.455 3.688 12.687 4.614 2.942.642 5.77.961 8.452.961 7.167 0 13.28-2.272 17.68-6.672C81.375 69.282 83.403 60 81.04 49.195"/>
</svg>
