<svg xmlns="http://www.w3.org/2000/svg" width="82" height="67" viewBox="0 0 82 67">
    <path fill="#FFF" fill-rule="evenodd" d="M79.355 52.549a2.639 2.639 0 0 1-2.645 2.627H5.29a2.639 2.639 0 0 1-2.645-2.627V5.255A2.64 2.64 0 0 1 5.29 2.627h71.42a2.639 2.639 0 0 1 2.645 2.628V52.55zM31.742 64.372h18.516v-6.569H31.742v6.569zM76.71 0H5.29C2.373 0 0 2.357 0 5.255V52.55c0 2.898 2.373 5.255 5.29 5.255h23.807v6.568h-9.258V67H62.16v-2.628h-9.258v-6.568H76.71c2.917 0 5.29-2.357 5.29-5.255V5.255C82 2.357 79.627 0 76.71 0zM7.935 49.922h66.13V7.882H7.934v42.04zM5.29 52.549h71.42V5.255H5.29V52.55zm6.613-42.039c.73 0 1.323.589 1.323 1.314 0 .726-.592 1.314-1.323 1.314-.73 0-1.322-.588-1.322-1.314 0-.725.592-1.314 1.322-1.314m3.968 0c.73 0 1.323.589 1.323 1.314 0 .726-.592 1.314-1.323 1.314-.73 0-1.323-.588-1.323-1.314 0-.725.593-1.314 1.323-1.314m3.968 0c.73 0 1.323.589 1.323 1.314 0 .726-.593 1.314-1.323 1.314s-1.323-.588-1.323-1.314c0-.725.592-1.314 1.323-1.314m-6.613 18.392h13.226v-10.51H13.226v10.51zM10.58 31.53h18.516V15.765H10.58V31.53zm23.806-2.628h13.226v-10.51H34.387v10.51zm-2.645 2.628h18.516V15.765H31.742V31.53zm23.806-2.628h13.226v-10.51H55.548v10.51zm-2.645 2.628H71.42V15.765H52.903V31.53zm-42.322 5.254h39.677v-2.627H10.581v2.627zm0 5.255h39.677v-2.627H10.581v2.627zm0 5.255h39.677v-2.628H10.581v2.628zm43.645-10.51h17.193v-2.627H54.226v2.627zm0 5.255h17.193v-2.627H54.226v2.627zm0 5.255h17.193v-2.628H54.226v2.628z"/>
</svg>
