<svg xmlns="http://www.w3.org/2000/svg" width="82" height="82" viewBox="0 0 82 82">
    <path fill="#FFF" fill-rule="evenodd" d="M10.58 23.806a1.323 1.323 0 1 1 0 2.645 1.323 1.323 0 0 1 0-2.645m5.291 0a1.323 1.323 0 1 1 0 2.645 1.323 1.323 0 0 1 0-2.645m5.29 0a1.323 1.323 0 1 1 0 2.645 1.323 1.323 0 0 1 0-2.645m-9.258 39.036l7.708 7.255h-7.708v-7.255zm-2.645 9.9h17.023L9.258 56.72v16.022zm51.58-51.58a2.648 2.648 0 0 1-2.644-2.646 2.648 2.648 0 0 1 2.645-2.645 2.648 2.648 0 0 1 2.645 2.645 2.648 2.648 0 0 1-2.645 2.645zm13.227-2.646c0 4.982-2.764 9.492-7.216 11.77l-.72.369v2.41h-3.967v-9.447c2.274-.591 3.967-2.645 3.967-5.102a5.296 5.296 0 0 0-5.29-5.29 5.296 5.296 0 0 0-5.29 5.29c0 2.457 1.692 4.511 3.967 5.102v9.446h-3.968v-2.41l-.719-.368c-4.452-2.278-7.216-6.788-7.216-11.77 0-7.293 5.933-13.226 13.226-13.226 7.293 0 13.226 5.933 13.226 13.226zm2.419 2.645h1.548c.729 0 1.323.594 1.323 1.323v6.613h-6.73a15.713 15.713 0 0 0 3.798-7.732.961.961 0 0 0 .06-.204zm-22.258 15.21c0-.365.296-.662.661-.662H66.79a.662.662 0 0 1 0 1.323H54.887a.661.661 0 0 1-.661-.661zm.661 3.306H66.79a.662.662 0 0 1 0 1.323H54.887a.662.662 0 0 1 0-1.323zm24.468 33.066c0 .729-.594 1.322-1.323 1.322H41.195L24.332 58.193h19.313V34.387H9.258v9.619l-2.645-2.49v-9.774h45.53c.256.166.494.353.76.506v1.493a3.296 3.296 0 0 0-1.323 2.628c0 .748.258 1.43.679 1.984a3.275 3.275 0 0 0-.679 1.986 3.311 3.311 0 0 0 3.307 3.306H66.79a3.311 3.311 0 0 0 3.307-3.306 3.27 3.27 0 0 0-.679-1.984 3.27 3.27 0 0 0 .679-1.984 3.295 3.295 0 0 0-1.323-2.628V32.25c.266-.154.504-.34.759-.507h9.822v41zM11.903 46.497v-9.465H41v18.516H21.521l-9.618-9.051zM3.968 79.355a1.323 1.323 0 0 1-1.323-1.323V76.71h2.646v-2.645H2.645v-2.646h2.646v-2.645H2.645V66.13h2.646v-2.646H2.645v-2.645h2.646v-2.645H2.645V55.55h2.646v-2.646H2.645v-2.645h2.646v-2.645H2.645v-6.198L16.482 54.44l3.99 3.754 22.484 21.162H3.968zm2.645-56.872c0-.728.594-1.322 1.323-1.322h37.258c.001.01.016.013.024.02a15.717 15.717 0 0 0 3.834 7.915H6.613v-6.613zM42.323 5.29h2.645V2.645h-2.645V5.29zm34.387 0h2.645V2.645H76.71V5.29zM82 7.935V0h-7.935v2.645H47.613V0h-7.935v7.935h7.935V5.29h4.472C47.8 8.135 44.968 13 44.968 18.516H7.936a3.973 3.973 0 0 0-3.968 3.968V39.05c-1.205-1.015-2.215-.768-2.604-.6C.954 38.627 0 39.23 0 41v37.032A3.973 3.973 0 0 0 3.968 82h39.677c1.731 0 2.33-.857 2.533-1.368.202-.511.354-1.544-.908-2.73l-1.265-1.192h34.027A3.973 3.973 0 0 0 82 72.742V22.484a3.973 3.973 0 0 0-3.968-3.968H76.71c0-5.517-2.834-10.38-7.117-13.226h4.471v2.645H82zM46.29 50.258h30.42v-2.645H46.29v2.645zm0 5.29h30.42v-2.645H46.29v2.645zm0 5.29h30.42v-2.645H46.29v2.646zm0 5.29h30.42v-2.644H46.29v2.645z"/>
</svg>
