<svg xmlns="http://www.w3.org/2000/svg" width="91" height="62" viewBox="0 0 91 62">
    <g fill="#A1A1A1" fill-rule="evenodd">
        <path d="M90.938 61.31H58.77l12.759-35.015h6.65L90.94 61.31zm-16.093-3.661l-6.988 3.667 1.334-7.768-5.653-5.5 7.813-1.134 3.494-7.068 3.494 7.068 7.813 1.133-5.654 5.501 1.335 7.768-6.988-3.667zM26.602 26.295v22.72c0 3.639-1.257 6.647-3.769 9.024-2.512 2.377-5.706 3.565-9.581 3.565-3.843 0-7.012-1.18-9.508-3.54C1.248 55.702 0 52.686 0 49.013V26.296h8.62v22.523c0 1.607.411 2.86 1.232 3.762.822.902 1.955 1.353 3.4 1.353 1.445 0 2.594-.46 3.448-1.377.854-.918 1.28-2.164 1.28-3.738V26.295h8.622zM50.69 35.59c-.788-.722-1.51-1.197-2.168-1.427-1.05-.426-2.331-.639-3.842-.639-1.544 0-2.742.279-3.596.836-.854.557-1.281 1.344-1.281 2.36 0 1.509 1.034 2.41 3.103 2.705l4.237.59c3.251.427 5.649 1.484 7.192 3.172 1.544 1.689 2.316 4.09 2.316 7.205 0 3.508-1.265 6.254-3.794 8.237-2.528 1.984-6.01 2.975-10.443 2.975-2.956 0-5.616-.475-7.98-1.426-1.314-.557-2.858-1.623-4.631-3.196l5.517-5.508c.788.655 1.56 1.147 2.315 1.475 1.675.656 3.514.984 5.518.984 3.35 0 5.025-1.066 5.025-3.197 0-1.672-1.002-2.655-3.005-2.95l-4.237-.59c-6.306-.886-9.458-4.213-9.458-9.984 0-3.475 1.182-6.212 3.546-8.212 2.365-2 5.6-3 9.705-3 2.628 0 4.976.426 7.045 1.279 1.379.59 2.824 1.557 4.335 2.901l-5.42 5.41zM10.686 9.305c.754.468 1.296.984 1.625 1.547.329.562.493 1.265.493 2.109 0 1.484-.485 2.672-1.456 3.562-.97.891-2.266 1.336-3.887 1.336H0V1.172h7.1c1.669 0 2.996.422 3.983 1.266.987.843 1.48 1.984 1.48 3.421 0 1.407-.625 2.555-1.877 3.446zM4.212 7.57h2.623c.482 0 .855-.12 1.12-.363.264-.242.396-.574.396-.996 0-.422-.132-.754-.397-.996-.264-.242-.637-.363-1.119-.363H4.212V7.57zm0 6.61h2.84c.481 0 .858-.133 1.131-.399.273-.265.41-.625.41-1.078 0-.453-.137-.808-.41-1.066-.273-.258-.65-.387-1.131-.387h-2.84v2.93zm21.396 3.68h-3.85v-1.032c-.466.438-.891.734-1.276.89-.45.173-.971.259-1.565.259-1.3 0-2.338-.368-3.117-1.102-.778-.734-1.167-1.71-1.167-2.93 0-1.14.393-2.043 1.18-2.707.786-.664 1.86-.996 3.225-.996h2.623v-.328c0-.562-.148-.965-.445-1.207-.297-.242-.799-.363-1.505-.363-.465 0-.838.054-1.119.164-.28.11-.597.336-.95.68l-2.455-2.391c.658-.61 1.267-1.024 1.829-1.242.722-.297 1.66-.446 2.816-.446 3.85 0 5.776 1.524 5.776 4.57v8.18zm-3.947-5.063h-1.998c-.369 0-.67.094-.902.281a.89.89 0 0 0-.35.727c0 .703.49 1.054 1.469 1.054.61 0 1.059-.136 1.348-.41.289-.273.433-.715.433-1.324v-.328zm13.983-3.774c-.272-.218-.513-.367-.722-.445-.481-.203-1.083-.305-1.805-.305-.995 0-1.492.258-1.492.774 0 .39.28.61.842.656l1.998.188c1.235.125 2.194.52 2.876 1.183.682.664 1.023 1.551 1.023 2.66 0 1.375-.518 2.43-1.552 3.164-1.035.735-2.532 1.102-4.49 1.102-1.25 0-2.326-.172-3.224-.516-.578-.234-1.236-.671-1.974-1.312l2.551-2.485c.386.329.763.57 1.132.727.497.219 1.115.328 1.853.328 1.235 0 1.853-.281 1.853-.844 0-.468-.313-.726-.939-.773l-1.997-.188c-2.503-.234-3.755-1.43-3.755-3.585 0-1.313.494-2.348 1.48-3.106.987-.758 2.331-1.137 4.032-1.137 1.171 0 2.222.172 3.153.516.497.203 1.027.547 1.588 1.031l-2.43 2.367zm15.909 3.774h-7.75c.08 1.312.883 1.969 2.407 1.969.497 0 .963-.078 1.396-.235.353-.14.738-.414 1.155-.82l2.359 2.297c-.818.75-1.549 1.25-2.19 1.5-.803.328-1.75.492-2.84.492-4.108 0-6.162-2.148-6.162-6.445 0-1.985.522-3.555 1.565-4.711 1.043-1.157 2.463-1.735 4.26-1.735 1.733 0 3.133.547 4.2 1.641 1.067 1.094 1.6 2.54 1.6 4.336v1.71zm-3.899-2.555c-.016-.625-.192-1.11-.53-1.453-.336-.344-.802-.516-1.395-.516-.594 0-1.063.176-1.408.528-.345.351-.518.832-.518 1.441h3.851zM64.67 17.86h-3.827v-1.03c-.465.437-.898.733-1.3.89-.48.187-1.034.281-1.66.281-1.364 0-2.423-.383-3.177-1.148-.562-.547-.899-1.235-1.01-2.063-.13-.781-.193-1.86-.193-3.234v-.563c0-1.297.088-2.3.264-3.012.177-.71.49-1.285.939-1.722.754-.766 1.805-1.149 3.153-1.149.61 0 1.18.102 1.709.305.369.156.754.406 1.155.75V1.172h3.947v16.687zm-3.947-6.375c0-1.093-.12-1.851-.361-2.273-.24-.422-.674-.633-1.3-.633-.69 0-1.14.274-1.348.82-.176.407-.264 1.196-.264 2.368 0 1.03.124 1.75.373 2.156.248.406.678.61 1.287.61.61 0 1.031-.22 1.264-.657.232-.438.349-1.234.349-2.39zm16.655-9.187c0 .672-.233 1.238-.698 1.7-.466.46-1.035.69-1.71.69-.657 0-1.223-.23-1.696-.69-.473-.462-.71-1.013-.71-1.653 0-.64.237-1.192.71-1.653A2.347 2.347 0 0 1 74.971 0c.658 0 1.223.227 1.697.68.473.453.71.992.71 1.617zm-.434 15.562h-3.947V5.742h3.947V17.86zm14.056 0h-3.947v-7.547c0-.53-.145-.953-.433-1.265-.29-.313-.674-.469-1.156-.469-.48 0-.866.156-1.155.469-.289.312-.433.734-.433 1.265v7.547h-3.947V5.25h3.85v1.031c.466-.39.907-.672 1.324-.843a4.863 4.863 0 0 1 1.733-.329c1.3 0 2.319.414 3.057 1.243C90.63 7.18 91 8.328 91 9.797v8.062z"/>
    </g>
</svg>
